<svg width="1589" height="268" viewBox="0 0 1589 268" fill="none" xmlns="http://www.w3.org/2000/svg">
<rect x="1135" y="8" width="2" height="4" fill="white"/>
<rect width="2" height="4" transform="matrix(1 0 0 -1 1135 30)" fill="white"/>
<rect x="1133" y="12" width="2" height="4" fill="white"/>
<rect width="2" height="4" transform="matrix(1 0 0 -1 1133 26)" fill="white"/>
<rect x="1137" y="12" width="2" height="4" fill="white"/>
<rect width="2" height="4" transform="matrix(1 0 0 -1 1137 26)" fill="white"/>
<rect x="1129" y="16" width="4" height="2" fill="white"/>
<rect width="4" height="2" transform="matrix(-1 0 0 1 1143 16)" fill="white"/>
<rect x="1125" y="18" width="4" height="2" fill="white"/>
<rect width="4" height="2" transform="matrix(-1 0 0 1 1147 18)" fill="white"/>
<rect x="1129" y="20" width="4" height="2" fill="white"/>
<rect width="4" height="2" transform="matrix(-1 0 0 1 1143 20)" fill="white"/>
<rect x="1222" y="125" width="2" height="4" fill="white"/>
<rect width="2" height="4" transform="matrix(1 0 0 -1 1222 147)" fill="white"/>
<rect x="1220" y="129" width="2" height="4" fill="white"/>
<rect width="2" height="4" transform="matrix(1 0 0 -1 1220 143)" fill="white"/>
<rect x="1224" y="129" width="2" height="4" fill="white"/>
<rect width="2" height="4" transform="matrix(1 0 0 -1 1224 143)" fill="white"/>
<rect x="1216" y="133" width="4" height="2" fill="white"/>
<rect width="4" height="2" transform="matrix(-1 0 0 1 1230 133)" fill="white"/>
<rect x="1212" y="135" width="4" height="2" fill="white"/>
<rect width="4" height="2" transform="matrix(-1 0 0 1 1234 135)" fill="white"/>
<rect x="1216" y="137" width="4" height="2" fill="white"/>
<rect width="4" height="2" transform="matrix(-1 0 0 1 1230 137)" fill="white"/>
<rect x="1381" y="1" width="2" height="4" fill="white"/>
<rect width="2" height="4" transform="matrix(1 0 0 -1 1381 23)" fill="white"/>
<rect x="1379" y="5" width="2" height="4" fill="white"/>
<rect width="2" height="4" transform="matrix(1 0 0 -1 1379 19)" fill="white"/>
<rect x="1383" y="5" width="2" height="4" fill="white"/>
<rect width="2" height="4" transform="matrix(1 0 0 -1 1383 19)" fill="white"/>
<rect x="1375" y="9" width="4" height="2" fill="white"/>
<rect width="4" height="2" transform="matrix(-1 0 0 1 1389 9)" fill="white"/>
<rect x="1371" y="11" width="4" height="2" fill="white"/>
<rect width="4" height="2" transform="matrix(-1 0 0 1 1393 11)" fill="white"/>
<rect x="1375" y="13" width="4" height="2" fill="white"/>
<rect width="4" height="2" transform="matrix(-1 0 0 1 1389 13)" fill="white"/>
<rect x="1411" y="238" width="2" height="4" fill="white"/>
<rect width="2" height="4" transform="matrix(1 0 0 -1 1411 260)" fill="white"/>
<rect x="1409" y="242" width="2" height="4" fill="white"/>
<rect width="2" height="4" transform="matrix(1 0 0 -1 1409 256)" fill="white"/>
<rect x="1413" y="242" width="2" height="4" fill="white"/>
<rect width="2" height="4" transform="matrix(1 0 0 -1 1413 256)" fill="white"/>
<rect x="1405" y="246" width="4" height="2" fill="white"/>
<rect width="4" height="2" transform="matrix(-1 0 0 1 1419 246)" fill="white"/>
<rect x="1401" y="248" width="4" height="2" fill="white"/>
<rect width="4" height="2" transform="matrix(-1 0 0 1 1423 248)" fill="white"/>
<rect x="1405" y="250" width="4" height="2" fill="white"/>
<rect width="4" height="2" transform="matrix(-1 0 0 1 1419 250)" fill="white"/>
<rect x="1576" y="102" width="2" height="4" fill="white"/>
<rect width="2" height="4" transform="matrix(1 0 0 -1 1576 124)" fill="white"/>
<rect x="1574" y="106" width="2" height="4" fill="white"/>
<rect width="2" height="4" transform="matrix(1 0 0 -1 1574 120)" fill="white"/>
<rect x="1578" y="106" width="2" height="4" fill="white"/>
<rect width="2" height="4" transform="matrix(1 0 0 -1 1578 120)" fill="white"/>
<rect x="1570" y="110" width="4" height="2" fill="white"/>
<rect width="4" height="2" transform="matrix(-1 0 0 1 1584 110)" fill="white"/>
<rect x="1566" y="112" width="4" height="2" fill="white"/>
<rect width="4" height="2" transform="matrix(-1 0 0 1 1588 112)" fill="white"/>
<rect x="1570" y="114" width="4" height="2" fill="white"/>
<rect width="4" height="2" transform="matrix(-1 0 0 1 1584 114)" fill="white"/>
<rect width="2" height="4" transform="matrix(-1 0 0 1 454 15)" fill="white"/>
<rect x="454" y="37" width="2" height="4" transform="rotate(180 454 37)" fill="white"/>
<rect width="2" height="4" transform="matrix(-1 0 0 1 456 19)" fill="white"/>
<rect x="456" y="33" width="2" height="4" transform="rotate(180 456 33)" fill="white"/>
<rect width="2" height="4" transform="matrix(-1 0 0 1 452 19)" fill="white"/>
<rect x="452" y="33" width="2" height="4" transform="rotate(180 452 33)" fill="white"/>
<rect width="4" height="2" transform="matrix(-1 0 0 1 460 23)" fill="white"/>
<rect x="446" y="23" width="4" height="2" fill="white"/>
<rect width="4" height="2" transform="matrix(-1 0 0 1 464 25)" fill="white"/>
<rect x="442" y="25" width="4" height="2" fill="white"/>
<rect width="4" height="2" transform="matrix(-1 0 0 1 460 27)" fill="white"/>
<rect x="446" y="27" width="4" height="2" fill="white"/>
<rect width="2" height="4" transform="matrix(-1 0 0 1 367 132)" fill="white"/>
<rect x="367" y="154" width="2" height="4" transform="rotate(180 367 154)" fill="white"/>
<rect width="2" height="4" transform="matrix(-1 0 0 1 369 136)" fill="white"/>
<rect x="369" y="150" width="2" height="4" transform="rotate(180 369 150)" fill="white"/>
<rect width="2" height="4" transform="matrix(-1 0 0 1 365 136)" fill="white"/>
<rect x="365" y="150" width="2" height="4" transform="rotate(180 365 150)" fill="white"/>
<rect width="4" height="2" transform="matrix(-1 0 0 1 373 140)" fill="white"/>
<rect x="359" y="140" width="4" height="2" fill="white"/>
<rect width="4" height="2" transform="matrix(-1 0 0 1 377 142)" fill="white"/>
<rect x="355" y="142" width="4" height="2" fill="white"/>
<rect width="4" height="2" transform="matrix(-1 0 0 1 373 144)" fill="white"/>
<rect x="359" y="144" width="4" height="2" fill="white"/>
<rect width="2" height="4" transform="matrix(-1 0 0 1 208 8)" fill="white"/>
<rect x="208" y="30" width="2" height="4" transform="rotate(180 208 30)" fill="white"/>
<rect width="2" height="4" transform="matrix(-1 0 0 1 210 12)" fill="white"/>
<rect x="210" y="26" width="2" height="4" transform="rotate(180 210 26)" fill="white"/>
<rect width="2" height="4" transform="matrix(-1 0 0 1 206 12)" fill="white"/>
<rect x="206" y="26" width="2" height="4" transform="rotate(180 206 26)" fill="white"/>
<rect width="4" height="2" transform="matrix(-1 0 0 1 214 16)" fill="white"/>
<rect x="200" y="16" width="4" height="2" fill="white"/>
<rect width="4" height="2" transform="matrix(-1 0 0 1 218 18)" fill="white"/>
<rect x="196" y="18" width="4" height="2" fill="white"/>
<rect width="4" height="2" transform="matrix(-1 0 0 1 214 20)" fill="white"/>
<rect x="200" y="20" width="4" height="2" fill="white"/>
<rect width="2" height="4" transform="matrix(-1 0 0 1 178 245)" fill="white"/>
<rect x="178" y="267" width="2" height="4" transform="rotate(180 178 267)" fill="white"/>
<rect width="2" height="4" transform="matrix(-1 0 0 1 180 249)" fill="white"/>
<rect x="180" y="263" width="2" height="4" transform="rotate(180 180 263)" fill="white"/>
<rect width="2" height="4" transform="matrix(-1 0 0 1 176 249)" fill="white"/>
<rect x="176" y="263" width="2" height="4" transform="rotate(180 176 263)" fill="white"/>
<rect width="4" height="2" transform="matrix(-1 0 0 1 184 253)" fill="white"/>
<rect x="170" y="253" width="4" height="2" fill="white"/>
<rect width="4" height="2" transform="matrix(-1 0 0 1 188 255)" fill="white"/>
<rect x="166" y="255" width="4" height="2" fill="white"/>
<rect width="4" height="2" transform="matrix(-1 0 0 1 184 257)" fill="white"/>
<rect x="170" y="257" width="4" height="2" fill="white"/>
<rect width="2" height="4" transform="matrix(-1 0 0 1 13 109)" fill="white"/>
<rect x="13" y="131" width="2" height="4" transform="rotate(180 13 131)" fill="white"/>
<rect width="2" height="4" transform="matrix(-1 0 0 1 15 113)" fill="white"/>
<rect x="15" y="127" width="2" height="4" transform="rotate(180 15 127)" fill="white"/>
<rect width="2" height="4" transform="matrix(-1 0 0 1 11 113)" fill="white"/>
<rect x="11" y="127" width="2" height="4" transform="rotate(180 11 127)" fill="white"/>
<rect width="4" height="2" transform="matrix(-1 0 0 1 19 117)" fill="white"/>
<rect x="5" y="117" width="4" height="2" fill="white"/>
<rect width="4" height="2" transform="matrix(-1 0 0 1 23 119)" fill="white"/>
<rect x="1" y="119" width="4" height="2" fill="white"/>
<rect width="4" height="2" transform="matrix(-1 0 0 1 19 121)" fill="white"/>
<rect x="5" y="121" width="4" height="2" fill="white"/>
</svg>
