<svg width="1920" height="899" viewBox="0 0 1920 899" fill="none" xmlns="http://www.w3.org/2000/svg">
<rect x="-1" y="140" width="494" height="299" fill="#250A5B"/>
<rect x="28" y="109" width="440" height="299" fill="#250A5B"/>
<rect x="43" y="84" width="431" height="299" fill="#250A5B"/>
<rect x="59" y="61" width="325" height="299" fill="#250A5B"/>
<rect x="76" y="27" width="251" height="299" fill="#250A5B"/>
<rect x="120" width="162" height="299" fill="#250A5B"/>
<rect x="282" y="193" width="418" height="246" fill="#250A5B"/>
<rect x="667" y="308" width="150" height="131" fill="#250A5B"/>
<rect x="374" y="166" width="301" height="299" fill="#250A5B"/>
<rect x="519" y="128" width="111" height="55" fill="#250A5B"/>
<rect x="646" y="226" width="96" height="148" fill="#250A5B"/>
<rect x="777" y="360" width="96" height="66" fill="#250A5B"/>
<rect x="723" y="256" width="486" height="239" fill="#250A5B"/>
<rect width="494" height="299" transform="matrix(-1 0 0 1 1919 140)" fill="#250A5B"/>
<rect width="440" height="299" transform="matrix(-1 0 0 1 1890 109)" fill="#250A5B"/>
<rect width="431" height="299" transform="matrix(-1 0 0 1 1875 84)" fill="#250A5B"/>
<rect width="325" height="299" transform="matrix(-1 0 0 1 1859 61)" fill="#250A5B"/>
<rect width="251" height="299" transform="matrix(-1 0 0 1 1842 27)" fill="#250A5B"/>
<rect width="162" height="299" transform="matrix(-1 0 0 1 1798 0)" fill="#250A5B"/>
<rect width="418" height="246" transform="matrix(-1 0 0 1 1636 193)" fill="#250A5B"/>
<rect width="150" height="131" transform="matrix(-1 0 0 1 1251 308)" fill="#250A5B"/>
<rect width="108" height="55" transform="matrix(-1 0 0 1 1396 128)" fill="#250A5B"/>
<rect width="301" height="273" transform="matrix(-1 0 0 1 1544 166)" fill="#250A5B"/>
<rect width="96" height="148" transform="matrix(-1 0 0 1 1272 226)" fill="#250A5B"/>
<rect width="96" height="66" transform="matrix(-1 0 0 1 1141 360)" fill="#250A5B"/>
<rect x="504" y="289" width="293" height="62" fill="#250A5B"/>
<rect width="293" height="66" transform="matrix(-1 0 0 1 1843 373)" fill="#250A5B"/>
<rect width="389" height="84" transform="matrix(1 0 0 -1 764 238)" fill="#250A5B"/>
<rect x="-1" y="56" width="88" height="746" fill="#250A5B"/>
<rect width="494" height="299" transform="matrix(1 0 0 -1 -1 723)" fill="#250A5B"/>
<rect width="440" height="299" transform="matrix(1 0 0 -1 28 754)" fill="#250A5B"/>
<rect width="431" height="299" transform="matrix(1 0 0 -1 43 779)" fill="#250A5B"/>
<rect width="325" height="299" transform="matrix(1 0 0 -1 59 802)" fill="#250A5B"/>
<rect width="251" height="299" transform="matrix(1 0 0 -1 76 836)" fill="#250A5B"/>
<rect width="76" height="780" transform="matrix(1 0 0 -1 1842 836)" fill="#250A5B"/>
<rect width="162" height="299" transform="matrix(1 0 0 -1 120 863)" fill="#250A5B"/>
<rect width="418" height="246" transform="matrix(1 0 0 -1 282 670)" fill="#250A5B"/>
<rect width="150" height="131" transform="matrix(1 0 0 -1 667 555)" fill="#250A5B"/>
<rect width="301" height="299" transform="matrix(1 0 0 -1 374 697)" fill="#250A5B"/>
<rect width="111" height="55" transform="matrix(1 0 0 -1 519 735)" fill="#250A5B"/>
<rect width="96" height="148" transform="matrix(1 0 0 -1 646 637)" fill="#250A5B"/>
<rect width="96" height="66" transform="matrix(1 0 0 -1 777 503)" fill="#250A5B"/>
<rect width="486" height="239" transform="matrix(1 0 0 -1 723 607)" fill="#250A5B"/>
<rect x="1925" y="759" width="494" height="299" transform="rotate(180 1925 759)" fill="#250A5B"/>
<rect x="1896" y="790" width="440" height="299" transform="rotate(180 1896 790)" fill="#250A5B"/>
<rect x="1881" y="815" width="431" height="299" transform="rotate(180 1881 815)" fill="#250A5B"/>
<rect x="1865" y="838" width="325" height="299" transform="rotate(180 1865 838)" fill="#250A5B"/>
<rect x="1848" y="872" width="251" height="299" transform="rotate(180 1848 872)" fill="#250A5B"/>
<rect x="1804" y="899" width="162" height="299" transform="rotate(180 1804 899)" fill="#250A5B"/>
<rect x="1642" y="706" width="418" height="246" transform="rotate(180 1642 706)" fill="#250A5B"/>
<rect x="1257" y="591" width="150" height="131" transform="rotate(180 1257 591)" fill="#250A5B"/>
<rect x="1402" y="771" width="108" height="55" transform="rotate(180 1402 771)" fill="#250A5B"/>
<rect x="1550" y="733" width="301" height="273" transform="rotate(180 1550 733)" fill="#250A5B"/>
<rect x="1278" y="673" width="96" height="148" transform="rotate(180 1278 673)" fill="#250A5B"/>
<rect x="1147" y="539" width="96" height="66" transform="rotate(180 1147 539)" fill="#250A5B"/>
<rect width="293" height="62" transform="matrix(1 0 0 -1 510 610)" fill="#250A5B"/>
<rect x="1849" y="526" width="293" height="66" transform="rotate(180 1849 526)" fill="#250A5B"/>
<rect width="628" height="222" transform="matrix(1 0 0 -1 678 677)" fill="#250A5B"/>
<rect x="630" y="184" width="605" height="299" fill="#250A5B"/>
<rect x="-1" y="117" width="427" height="378" fill="#9523BE"/>
<rect x="28" y="165" width="440" height="299" fill="#9523BE"/>
<rect x="59" y="117" width="325" height="299" fill="#9523BE"/>
<rect x="76" y="83" width="251" height="299" fill="#9523BE"/>
<rect x="120" y="56" width="162" height="299" fill="#9523BE"/>
<rect x="120" y="56" width="162" height="299" fill="#9523BE"/>
<rect x="282" y="249" width="418" height="246" fill="#9523BE"/>
<rect x="667" y="364" width="150" height="131" fill="#9523BE"/>
<rect x="374" y="222" width="301" height="273" fill="#9523BE"/>
<rect x="519" y="184" width="111" height="55" fill="#9523BE"/>
<rect x="646" y="282" width="96" height="148" fill="#9523BE"/>
<rect x="777" y="416" width="96" height="66" fill="#9523BE"/>
<rect x="726" y="312" width="492" height="183" fill="#9523BE"/>
<rect x="772" y="249" width="373" height="242" fill="#9523BE"/>
<rect x="803" y="197" width="312" height="242" fill="#9523BE"/>
<rect width="442.189" height="299" transform="matrix(-1 0 0 1 1896.9 165)" fill="#9523BE"/>
<rect width="429.124" height="322" transform="matrix(-1 0 0 1 1918 117)" fill="#9523BE"/>
<rect width="326.617" height="299" transform="matrix(-1 0 0 1 1865.74 117)" fill="#9523BE"/>
<rect width="252.249" height="299" transform="matrix(-1 0 0 1 1848.66 83)" fill="#9523BE"/>
<rect width="162.806" height="299" transform="matrix(-1 0 0 1 1804.44 56)" fill="#9523BE"/>
<rect width="420.08" height="246" transform="matrix(-1 0 0 1 1641.63 249)" fill="#9523BE"/>
<rect width="150.746" height="131" transform="matrix(-1 0 0 1 1254.72 364)" fill="#9523BE"/>
<rect width="108.537" height="55" transform="matrix(-1 0 0 1 1400.44 184)" fill="#9523BE"/>
<rect width="302.497" height="273" transform="matrix(-1 0 0 1 1549.17 222)" fill="#9523BE"/>
<rect width="96.4776" height="148" transform="matrix(-1 0 0 1 1275.82 282)" fill="#9523BE"/>
<rect width="96.4776" height="66" transform="matrix(-1 0 0 1 1144.17 416)" fill="#9523BE"/>
<rect x="504" y="345" width="294.458" height="62" fill="#9523BE"/>
<rect width="294.458" height="66" transform="matrix(-1 0 0 1 1849.66 429)" fill="#9523BE"/>
<rect width="389" height="299" transform="matrix(1 0 0 -1 756 708)" fill="#250A5B"/>
<rect width="440" height="299" transform="matrix(1 0 0 -1 28 683)" fill="#9523BE"/>
<rect width="431" height="299" transform="matrix(1 0 0 -1 43 708)" fill="#9523BE"/>
<rect width="385" height="299" transform="matrix(1 0 0 -1 -1 731)" fill="#9523BE"/>
<rect width="251" height="299" transform="matrix(1 0 0 -1 76 765)" fill="#9523BE"/>
<rect width="162" height="299" transform="matrix(1 0 0 -1 120 792)" fill="#9523BE"/>
<rect width="418" height="246" transform="matrix(1 0 0 -1 282 599)" fill="#9523BE"/>
<rect width="150" height="131" transform="matrix(1 0 0 -1 667 484)" fill="#9523BE"/>
<rect width="301" height="273" transform="matrix(1 0 0 -1 374 626)" fill="#9523BE"/>
<rect width="111" height="55" transform="matrix(1 0 0 -1 519 664)" fill="#9523BE"/>
<rect width="96" height="148" transform="matrix(1 0 0 -1 646 566)" fill="#9523BE"/>
<rect width="96" height="66" transform="matrix(1 0 0 -1 777 432)" fill="#9523BE"/>
<rect width="492" height="183" transform="matrix(1 0 0 -1 726 536)" fill="#9523BE"/>
<rect width="373" height="242" transform="matrix(1 0 0 -1 772 599)" fill="#9523BE"/>
<rect width="312" height="242" transform="matrix(1 0 0 -1 803 651)" fill="#9523BE"/>
<rect x="1890" y="683" width="440" height="299" transform="rotate(-180 1890 683)" fill="#9523BE"/>
<rect x="1875" y="708" width="431" height="299" transform="rotate(-180 1875 708)" fill="#9523BE"/>
<rect x="1919" y="731" width="423" height="299" transform="rotate(-180 1919 731)" fill="#9523BE"/>
<rect x="1842" y="765" width="251" height="299" transform="rotate(-180 1842 765)" fill="#9523BE"/>
<rect x="1798" y="792" width="162" height="299" transform="rotate(-180 1798 792)" fill="#9523BE"/>
<rect x="1636" y="599" width="418" height="246" transform="rotate(-180 1636 599)" fill="#9523BE"/>
<rect x="1251" y="484" width="150" height="131" transform="rotate(-180 1251 484)" fill="#9523BE"/>
<rect x="1396" y="664" width="108" height="55" transform="rotate(-180 1396 664)" fill="#9523BE"/>
<rect x="1544" y="626" width="301" height="273" transform="rotate(-180 1544 626)" fill="#9523BE"/>
<rect x="1272" y="566" width="96" height="148" transform="rotate(-180 1272 566)" fill="#9523BE"/>
<rect x="1141" y="432" width="96" height="66" transform="rotate(-180 1141 432)" fill="#9523BE"/>
<rect width="293" height="62" transform="matrix(1 0 0 -1 504 503)" fill="#9523BE"/>
<rect x="1843" y="419" width="293" height="66" transform="rotate(-180 1843 419)" fill="#9523BE"/>
<rect x="570" y="242" width="855" height="367" fill="#9523BE"/>
<rect x="23" y="216" width="440" height="330" fill="#FEA7FF"/>
<rect x="38" y="191" width="431" height="299" fill="#FEA7FF"/>
<rect x="54" y="168" width="325" height="299" fill="#FEA7FF"/>
<rect x="71" y="134" width="251" height="299" fill="#FEA7FF"/>
<rect x="115" y="107" width="162" height="299" fill="#FEA7FF"/>
<rect x="-6" y="168" width="436" height="378" fill="#FEA7FF"/>
<rect x="1757" y="168" width="162" height="378" fill="#FEA7FF"/>
<rect x="277" y="300" width="418" height="246" fill="#FEA7FF"/>
<rect x="662" y="415" width="150" height="131" fill="#FEA7FF"/>
<rect x="369" y="273" width="301" height="273" fill="#FEA7FF"/>
<rect x="514" y="235" width="111" height="55" fill="#FEA7FF"/>
<rect x="641" y="333" width="96" height="148" fill="#FEA7FF"/>
<rect x="772" y="467" width="96" height="66" fill="#FEA7FF"/>
<rect x="670" y="300" width="613" height="246" fill="#FEA7FF"/>
<rect x="23" y="216" width="440" height="330" fill="#FEA7FF"/>
<rect x="38" y="191" width="431" height="299" fill="#FEA7FF"/>
<rect x="54" y="168" width="325" height="299" fill="#FEA7FF"/>
<rect x="71" y="134" width="251" height="299" fill="#FEA7FF"/>
<rect x="115" y="107" width="162" height="299" fill="#FEA7FF"/>
<rect x="-6" y="168" width="436" height="378" fill="#FEA7FF"/>
<rect x="1757" y="168" width="162" height="378" fill="#FEA7FF"/>
<rect x="277" y="300" width="418" height="246" fill="#FEA7FF"/>
<rect x="662" y="415" width="150" height="131" fill="#FEA7FF"/>
<rect x="369" y="273" width="301" height="273" fill="#FEA7FF"/>
<rect x="514" y="235" width="111" height="55" fill="#FEA7FF"/>
<rect x="641" y="333" width="96" height="148" fill="#FEA7FF"/>
<rect x="772" y="467" width="96" height="66" fill="#FEA7FF"/>
<rect x="670" y="300" width="613" height="246" fill="#FEA7FF"/>
<rect width="440" height="299" transform="matrix(-1 0 0 1 1885 216)" fill="#FEA7FF"/>
<rect width="431" height="355" transform="matrix(-1 0 0 1 1870 191)" fill="#FEA7FF"/>
<rect width="378" height="299" transform="matrix(-1 0 0 1 1854 168)" fill="#FEA7FF"/>
<rect width="251" height="299" transform="matrix(-1 0 0 1 1837 134)" fill="#FEA7FF"/>
<rect width="162" height="299" transform="matrix(-1 0 0 1 1793 107)" fill="#FEA7FF"/>
<rect width="418" height="246" transform="matrix(-1 0 0 1 1631 300)" fill="#FEA7FF"/>
<rect width="150" height="131" transform="matrix(-1 0 0 1 1246 415)" fill="#FEA7FF"/>
<rect width="108" height="55" transform="matrix(-1 0 0 1 1391 235)" fill="#FEA7FF"/>
<rect width="301" height="273" transform="matrix(-1 0 0 1 1539 273)" fill="#FEA7FF"/>
<rect width="96" height="148" transform="matrix(-1 0 0 1 1267 333)" fill="#FEA7FF"/>
<rect width="96" height="66" transform="matrix(-1 0 0 1 1136 467)" fill="#FEA7FF"/>
<rect x="499" y="396" width="293" height="62" fill="#FEA7FF"/>
<rect width="293" height="66" transform="matrix(-1 0 0 1 1838 480)" fill="#FEA7FF"/>
<rect width="351" height="325" transform="matrix(-1 0 0 1 1136 257)" fill="#FEA7FF"/>
<rect x="1889" y="625" width="440" height="330" transform="rotate(180 1889 625)" fill="#FEA7FF"/>
<rect x="1874" y="650" width="431" height="299" transform="rotate(180 1874 650)" fill="#FEA7FF"/>
<rect x="1858" y="673" width="325" height="299" transform="rotate(180 1858 673)" fill="#FEA7FF"/>
<rect x="1841" y="707" width="251" height="299" transform="rotate(180 1841 707)" fill="#FEA7FF"/>
<rect x="1797" y="734" width="162" height="299" transform="rotate(180 1797 734)" fill="#FEA7FF"/>
<rect x="1918" y="673" width="436" height="378" transform="rotate(180 1918 673)" fill="#FEA7FF"/>
<rect x="155" y="673" width="162" height="378" transform="rotate(180 155 673)" fill="#FEA7FF"/>
<rect x="1635" y="541" width="418" height="246" transform="rotate(180 1635 541)" fill="#FEA7FF"/>
<rect x="1250" y="426" width="150" height="131" transform="rotate(180 1250 426)" fill="#FEA7FF"/>
<rect x="1543" y="568" width="301" height="273" transform="rotate(180 1543 568)" fill="#FEA7FF"/>
<rect x="1398" y="606" width="111" height="55" transform="rotate(180 1398 606)" fill="#FEA7FF"/>
<rect x="1271" y="508" width="96" height="148" transform="rotate(180 1271 508)" fill="#FEA7FF"/>
<rect x="1140" y="374" width="96" height="66" transform="rotate(180 1140 374)" fill="#FEA7FF"/>
<rect x="1242" y="541" width="613" height="246" transform="rotate(180 1242 541)" fill="#FEA7FF"/>
<rect width="440" height="299" transform="matrix(1 0 0 -1 27 625)" fill="#FEA7FF"/>
<rect width="431" height="355" transform="matrix(1 0 0 -1 42 650)" fill="#FEA7FF"/>
<rect width="378" height="299" transform="matrix(1 0 0 -1 58 673)" fill="#FEA7FF"/>
<rect width="251" height="299" transform="matrix(1 0 0 -1 75 707)" fill="#FEA7FF"/>
<rect width="162" height="299" transform="matrix(1 0 0 -1 119 734)" fill="#FEA7FF"/>
<rect width="418" height="246" transform="matrix(1 0 0 -1 281 541)" fill="#FEA7FF"/>
<rect width="150" height="131" transform="matrix(1 0 0 -1 666 426)" fill="#FEA7FF"/>
<rect width="108" height="55" transform="matrix(1 0 0 -1 521 606)" fill="#FEA7FF"/>
<rect width="301" height="273" transform="matrix(1 0 0 -1 373 568)" fill="#FEA7FF"/>
<rect width="96" height="148" transform="matrix(1 0 0 -1 645 508)" fill="#FEA7FF"/>
<rect width="96" height="66" transform="matrix(1 0 0 -1 776 374)" fill="#FEA7FF"/>
<rect x="1413" y="445" width="293" height="62" transform="rotate(-180 1413 445)" fill="#FEA7FF"/>
<rect width="293" height="66" transform="matrix(1 0 0 -1 74 361)" fill="#FEA7FF"/>
</svg>
