<svg width="1920" height="742" viewBox="0 0 1920 742" fill="none" xmlns="http://www.w3.org/2000/svg">
<rect x="16" y="173.374" width="494" height="370.277" fill="#9523BE"/>
<rect x="45" y="134.984" width="440" height="370.277" fill="#9523BE"/>
<rect x="60" y="104.024" width="431" height="370.277" fill="#9523BE"/>
<rect x="76" y="75.5415" width="325" height="370.277" fill="#9523BE"/>
<rect x="89" y="33" width="255" height="371" fill="#9523BE"/>
<rect x="137" width="162" height="370.277" fill="#9523BE"/>
<rect x="299" y="239.008" width="418" height="304.642" fill="#9523BE"/>
<rect x="684" y="381.422" width="150" height="162.228" fill="#9523BE"/>
<rect x="391" y="205.572" width="301" height="370.277" fill="#9523BE"/>
<rect x="468" y="30" width="179" height="197" fill="#9523BE"/>
<rect x="663" y="279.875" width="96" height="183.281" fill="#9523BE"/>
<rect x="794" y="445.818" width="96" height="81.7333" fill="#9523BE"/>
<rect x="16" y="317" width="1210" height="296" fill="#9523BE"/>
<rect width="443.667" height="228.537" transform="matrix(-1 0 0 1 1906.76 83.313)" fill="#9523BE"/>
<rect width="478.958" height="229" transform="matrix(-1 0 0 1 1936 64)" fill="#9523BE"/>
<rect width="318.633" height="228" transform="matrix(-1 0 0 1 1858.36 21)" fill="#9523BE"/>
<rect width="163.35" height="228.537" transform="matrix(-1 0 0 1 1813.99 0)" fill="#9523BE"/>
<rect width="421.483" height="188.027" transform="matrix(-1 0 0 1 1650.64 147.518)" fill="#9523BE"/>
<rect width="151.25" height="100.128" transform="matrix(-1 0 0 1 1262.43 235.417)" fill="#9523BE"/>
<rect width="108.9" height="42.0387" transform="matrix(-1 0 0 1 1408.64 97.8354)" fill="#9523BE"/>
<rect width="303.508" height="208.665" transform="matrix(-1 0 0 1 1557.88 126.88)" fill="#9523BE"/>
<rect width="96.8" height="113.122" transform="matrix(-1 0 0 1 1283.61 172.741)" fill="#9523BE"/>
<rect width="96.8" height="50.4464" transform="matrix(-1 0 0 1 1151.52 275.162)" fill="#9523BE"/>
<rect x="509.208" y="173" width="790.533" height="197" fill="#9523BE"/>
<rect width="759.275" height="328" transform="matrix(-1 0 0 1 1936 285)" fill="#9523BE"/>
<rect width="392.242" height="64.2045" transform="matrix(1 0 0 -1 771.375 181.913)" fill="#9523BE"/>
<rect y="76" width="89" height="537" fill="#9523BE"/>
<rect y="307.374" width="494" height="370.277" fill="#250A5B"/>
<rect x="29" y="268.984" width="440" height="370.277" fill="#250A5B"/>
<rect x="44" y="238.024" width="431" height="370.277" fill="#250A5B"/>
<rect x="77" y="167.437" width="251" height="370.277" fill="#250A5B"/>
<rect x="121" y="134" width="162" height="370.277" fill="#250A5B"/>
<rect x="283" y="373.008" width="418" height="304.642" fill="#250A5B"/>
<rect x="668" y="515.422" width="150" height="162.228" fill="#250A5B"/>
<rect x="375" y="339.572" width="301" height="370.277" fill="#250A5B"/>
<rect x="452" y="164" width="259" height="197" fill="#250A5B"/>
<rect x="647" y="413.875" width="96" height="183.281" fill="#250A5B"/>
<rect x="778" y="579.818" width="96" height="81.7333" fill="#250A5B"/>
<rect y="451" width="1210" height="296" fill="#250A5B"/>
<rect width="443.667" height="228.537" transform="matrix(-1 0 0 1 1906.76 217.313)" fill="#250A5B"/>
<rect width="478.958" height="229" transform="matrix(-1 0 0 1 1936 198)" fill="#250A5B"/>
<rect width="318.633" height="228" transform="matrix(-1 0 0 1 1858.36 155)" fill="#250A5B"/>
<rect width="163.35" height="228.537" transform="matrix(-1 0 0 1 1813.99 134)" fill="#250A5B"/>
<rect width="421.483" height="208" transform="matrix(-1 0 0 1 1650.64 262)" fill="#250A5B"/>
<rect width="151.25" height="100.128" transform="matrix(-1 0 0 1 1262.43 369.417)" fill="#250A5B"/>
<rect width="108.9" height="42.0387" transform="matrix(-1 0 0 1 1408.64 231.835)" fill="#250A5B"/>
<rect width="96.8" height="113.122" transform="matrix(-1 0 0 1 1283.61 306.741)" fill="#250A5B"/>
<rect width="96.8" height="50.4464" transform="matrix(-1 0 0 1 1151.52 409.162)" fill="#250A5B"/>
<rect x="509.208" y="307" width="790.533" height="197" fill="#250A5B"/>
<rect width="759.275" height="328" transform="matrix(-1 0 0 1 1936 419)" fill="#250A5B"/>
<rect width="392.242" height="64.2045" transform="matrix(1 0 0 -1 771.375 315.913)" fill="#250A5B"/>
<rect y="176.803" width="88.7333" height="570.197" fill="#250A5B"/>
</svg>
