<svg width="54" height="54" viewBox="0 0 54 54" fill="none" xmlns="http://www.w3.org/2000/svg">
<rect width="54" height="54" fill="#6900BF"/>
<rect width="13.3333" height="3.33333" transform="matrix(1 0 0 -1 20.3333 42)" fill="white"/>
<rect width="13.3333" height="3.33333" transform="matrix(1 0 0 -1 20.3333 35.3333)" fill="white"/>
<rect width="3.33333" height="10" transform="matrix(1 0 0 -1 20.3333 35.3333)" fill="white"/>
<rect width="8.33333" height="3.33333" transform="matrix(1 0 0 -1 12 28.6667)" fill="white"/>
<rect width="3.33333" height="3.33333" transform="matrix(1 0 0 -1 12 25.3333)" fill="white"/>
<rect width="3.33333" height="3.33333" transform="matrix(1 0 0 -1 15.3333 22)" fill="white"/>
<rect width="3.33333" height="3.33333" transform="matrix(1 0 0 -1 18.6667 18.6667)" fill="white"/>
<rect width="3.33333" height="3.33333" transform="matrix(1 0 0 -1 22 15.3333)" fill="white"/>
<rect width="3.33333" height="3.33333" transform="matrix(1 0 0 -1 25.3333 12)" fill="white"/>
<rect width="3.33333" height="3.33333" transform="matrix(1 0 0 -1 28.6667 15.3333)" fill="white"/>
<rect width="3.33333" height="3.33333" transform="matrix(1 0 0 -1 32 18.6667)" fill="white"/>
<rect width="3.33333" height="3.33333" transform="matrix(1 0 0 -1 35.3333 22)" fill="white"/>
<rect width="3.33333" height="6.66667" transform="matrix(1 0 0 -1 38.6667 28.6667)" fill="white"/>
<rect width="5" height="3.33333" transform="matrix(1 0 0 -1 33.6667 28.6667)" fill="white"/>
<rect width="3.33333" height="10" transform="matrix(1 0 0 -1 30.3333 35.3333)" fill="white"/>
</svg>
