<svg width="24" height="24" viewBox="0 0 24 24" fill="none" xmlns="http://www.w3.org/2000/svg">
<rect width="2" height="4" transform="matrix(-1 0 0 1 13 1)" fill="white"/>
<rect x="13" y="23" width="2" height="4" transform="rotate(180 13 23)" fill="white"/>
<rect width="2" height="4" transform="matrix(-1 0 0 1 15 5)" fill="white"/>
<rect x="15" y="19" width="2" height="4" transform="rotate(180 15 19)" fill="white"/>
<rect width="2" height="4" transform="matrix(-1 0 0 1 11 5)" fill="white"/>
<rect x="11" y="19" width="2" height="4" transform="rotate(180 11 19)" fill="white"/>
<rect width="4" height="2" transform="matrix(-1 0 0 1 19 9)" fill="white"/>
<rect x="5" y="9" width="4" height="2" fill="white"/>
<rect width="4" height="2" transform="matrix(-1 0 0 1 23 11)" fill="white"/>
<rect x="1" y="11" width="4" height="2" fill="white"/>
<rect width="4" height="2" transform="matrix(-1 0 0 1 19 13)" fill="white"/>
<rect x="5" y="13" width="4" height="2" fill="white"/>
</svg>
